# xmcd CD database file
#
# Track frame offsets:
#	150
#	20030
#	36587
#	56161
#	78022
#	98377
#	119185
#	136015
#	153636
#	172316
#	192308
#	212535
#
# Disc length: 3179 seconds
#
# Revision: 0
# Processed by: cddbd v1.5.1PL2 Copyright (c) Steve Scherf et al.
# Submitted via: CDex 1.51
#
DISCID=a90c690c
DTITLE=Various Artist - Merengue En La Calle Ocho '99
DYEAR=1999
DGENRE=Merengue
TTITLE0=Elvis Crespo - Suavemente
TTITLE1=Olga Tañon - Serpiente Mala
TTITLE2=Fulanoti - El Cepillo
TTITLE3=Grupo Manía - Me Miras Y Te Miro
TTITLE4=Los Toros Band - Quizás Sí, Quizás No
TTITLE5=Rikarena - El Ki Ki Ki
TTITLE6=Milly y Elvis Crespo - Para Darte Mi Vida
TTITLE7=Melina León - Mujeres Liberales
TTITLE8=Mattizz - Todo Se Lo Doy
TTITLE9=Banda Gorda - Y Ahora Es Que Falta Mambo
TTITLE10=Eddy Herrera - No Sé Olvidar
TTITLE11=La Mákina - Están Bailando (Remix)
EXTD=YEAR: 1999
EXTT0=
EXTT1=
EXTT2=
EXTT3=
EXTT4=
EXTT5=
EXTT6=
EXTT7=
EXTT8=
EXTT9=
EXTT10=
EXTT11=
PLAYORDER=
